<svg width="21" height="20" viewBox="0 0 21 20" fill="none" xmlns="http://www.w3.org/2000/svg">
<path d="M13.625 5C14.1554 5 14.6641 5.21071 15.0392 5.58579C15.4143 5.96086 15.625 6.46957 15.625 7M13.625 1C15.2163 1 16.7424 1.63214 17.8676 2.75736C18.9929 3.88258 19.625 5.4087 19.625 7M3.625 2H7.625L9.625 7L7.125 8.5C8.19596 10.6715 9.95347 12.429 12.125 13.5L13.625 11L18.625 13V17C18.625 17.5304 18.4143 18.0391 18.0392 18.4142C17.6641 18.7893 17.1554 19 16.625 19C12.7243 18.763 9.04515 17.1065 6.28183 14.3432C3.5185 11.5798 1.86205 7.90074 1.625 4C1.625 3.46957 1.83571 2.96086 2.21079 2.58579C2.58586 2.21071 3.09457 2 3.625 2Z" stroke="black" stroke-width="2" stroke-linecap="round" stroke-linejoin="round"/>
</svg>
