<svg width="48" height="48" viewBox="0 0 48 48" fill="none" xmlns="http://www.w3.org/2000/svg">
<rect x="0.5" y="0.5" width="47" height="47" rx="11.5" fill="white"/>
<rect x="0.5" y="0.5" width="47" height="47" rx="11.5" stroke="#EBF0F5"/>
<path fill-rule="evenodd" clip-rule="evenodd" d="M24 34C19.286 34 16.9289 34 15.4645 32.5355C14 31.0711 14 28.714 14 24C14 19.286 14 16.9289 15.4645 15.4645C16.9289 14 19.286 14 24 14C28.714 14 31.0711 14 32.5355 15.4645C34 16.9289 34 19.286 34 24C34 28.714 34 31.0711 32.5355 32.5355C31.0711 34 28.714 34 24 34ZM24 19.75C23.3787 19.75 22.875 20.2537 22.875 20.875C22.875 21.2892 22.5392 21.625 22.125 21.625C21.7108 21.625 21.375 21.2892 21.375 20.875C21.375 19.4253 22.5503 18.25 24 18.25C25.4497 18.25 26.625 19.4253 26.625 20.875C26.625 21.5858 26.3415 22.232 25.883 22.704C25.7907 22.7989 25.7027 22.8869 25.6187 22.9708C25.4029 23.1864 25.2138 23.3753 25.0479 23.5885C24.8289 23.8699 24.75 24.0768 24.75 24.25V25C24.75 25.4142 24.4142 25.75 24 25.75C23.5858 25.75 23.25 25.4142 23.25 25V24.25C23.25 23.5948 23.555 23.0644 23.8642 22.6672C24.0929 22.3733 24.3804 22.0863 24.6138 21.8535C24.6842 21.7832 24.7496 21.7179 24.807 21.6588C25.0046 21.4554 25.125 21.18 25.125 20.875C25.125 20.2537 24.6213 19.75 24 19.75ZM24 29C24.5523 29 25 28.5523 25 28C25 27.4477 24.5523 27 24 27C23.4477 27 23 27.4477 23 28C23 28.5523 23.4477 29 24 29Z" fill="#FFA72A"/>
</svg>
