<svg width="19" height="21" viewBox="0 0 19 21" fill="none" xmlns="http://www.w3.org/2000/svg">
<path d="M6.375 8.99995C6.375 9.7956 6.69107 10.5587 7.25368 11.1213C7.81629 11.6839 8.57935 12 9.375 12C10.1706 12 10.9337 11.6839 11.4963 11.1213C12.0589 10.5587 12.375 9.7956 12.375 8.99995C12.375 8.2043 12.0589 7.44124 11.4963 6.87863C10.9337 6.31602 10.1706 5.99995 9.375 5.99995C8.57935 5.99995 7.81629 6.31602 7.25368 6.87863C6.69107 7.44124 6.375 8.2043 6.375 8.99995Z" stroke="black" stroke-width="2" stroke-linecap="round" stroke-linejoin="round"/>
<path d="M15.032 14.657L10.789 18.9C10.414 19.2746 9.90559 19.485 9.3755 19.485C8.84542 19.485 8.33702 19.2746 7.962 18.9L3.718 14.657C2.59922 13.5381 1.83734 12.1127 1.52869 10.5608C1.22004 9.00898 1.37849 7.40047 1.98401 5.93868C2.58952 4.4769 3.6149 3.22749 4.93048 2.34846C6.24607 1.46943 7.79277 1.00024 9.375 1.00024C10.9572 1.00024 12.5039 1.46943 13.8195 2.34846C15.1351 3.22749 16.1605 4.4769 16.766 5.93868C17.3715 7.40047 17.53 9.00898 17.2213 10.5608C16.9127 12.1127 16.1508 13.5381 15.032 14.657Z" stroke="black" stroke-width="2" stroke-linecap="round" stroke-linejoin="round"/>
</svg>
