<svg width="20" height="20" viewBox="0 0 16 16" fill="none" xmlns="http://www.w3.org/2000/svg">
<path d="M5.99984 7.33338C5.99984 7.86382 6.21055 8.37253 6.58562 8.7476C6.9607 9.12267 7.4694 9.33338 7.99984 9.33338C8.53027 9.33338 9.03898 9.12267 9.41405 8.7476C9.78912 8.37253 9.99984 7.86382 9.99984 7.33338C9.99984 6.80295 9.78912 6.29424 9.41405 5.91917C9.03898 5.5441 8.53027 5.33338 7.99984 5.33338C7.4694 5.33338 6.9607 5.5441 6.58562 5.91917C6.21055 6.29424 5.99984 6.80295 5.99984 7.33338Z" stroke="white" stroke-width="1.33333" stroke-linecap="round" stroke-linejoin="round"/>
<path d="M11.7712 11.1047L8.94251 13.9334C8.6925 14.1831 8.35356 14.3234 8.00017 14.3234C7.64678 14.3234 7.30785 14.1831 7.05784 13.9334L4.22851 11.1047C3.48265 10.3588 2.97473 9.40852 2.76896 8.37396C2.5632 7.3394 2.66883 6.26706 3.07251 5.29254C3.47618 4.31801 4.15977 3.48508 5.03683 2.89905C5.91388 2.31303 6.94502 2.00024 7.99984 2.00024C9.05466 2.00024 10.0858 2.31303 10.9629 2.89905C11.8399 3.48508 12.5235 4.31801 12.9272 5.29254C13.3308 6.26706 13.4365 7.3394 13.2307 8.37396C13.0249 9.40852 12.517 10.3588 11.7712 11.1047Z" stroke="white" stroke-width="1.33333" stroke-linecap="round" stroke-linejoin="round"/>
</svg>
