<svg width="21" height="19" viewBox="0 0 21 19" fill="none" xmlns="http://www.w3.org/2000/svg">
<path d="M6.875 6H14.875M6.875 10H12.875M16.875 1C17.6706 1 18.4337 1.31607 18.9963 1.87868C19.5589 2.44129 19.875 3.20435 19.875 4V12C19.875 12.7956 19.5589 13.5587 18.9963 14.1213C18.4337 14.6839 17.6706 15 16.875 15H11.875L6.875 18V15H4.875C4.07935 15 3.31629 14.6839 2.75368 14.1213C2.19107 13.5587 1.875 12.7956 1.875 12V4C1.875 3.20435 2.19107 2.44129 2.75368 1.87868C3.31629 1.31607 4.07935 1 4.875 1H16.875Z" stroke="black" stroke-width="2" stroke-linecap="round" stroke-linejoin="round"/>
</svg>
