<svg width="21" height="20" viewBox="0 0 21 20" fill="none" xmlns="http://www.w3.org/2000/svg">
<path d="M6.825 8.69999L13.425 5.29999M6.825 11.3L13.425 14.7M1.125 10C1.125 10.7956 1.44107 11.5587 2.00368 12.1213C2.56629 12.6839 3.32935 13 4.125 13C4.92065 13 5.68371 12.6839 6.24632 12.1213C6.80893 11.5587 7.125 10.7956 7.125 10C7.125 9.20435 6.80893 8.44129 6.24632 7.87868C5.68371 7.31607 4.92065 7 4.125 7C3.32935 7 2.56629 7.31607 2.00368 7.87868C1.44107 8.44129 1.125 9.20435 1.125 10ZM13.125 4C13.125 4.79565 13.4411 5.55871 14.0037 6.12132C14.5663 6.68393 15.3294 7 16.125 7C16.9206 7 17.6837 6.68393 18.2463 6.12132C18.8089 5.55871 19.125 4.79565 19.125 4C19.125 3.20435 18.8089 2.44129 18.2463 1.87868C17.6837 1.31607 16.9206 1 16.125 1C15.3294 1 14.5663 1.31607 14.0037 1.87868C13.4411 2.44129 13.125 3.20435 13.125 4ZM13.125 16C13.125 16.7956 13.4411 17.5587 14.0037 18.1213C14.5663 18.6839 15.3294 19 16.125 19C16.9206 19 17.6837 18.6839 18.2463 18.1213C18.8089 17.5587 19.125 16.7956 19.125 16C19.125 15.2044 18.8089 14.4413 18.2463 13.8787C17.6837 13.3161 16.9206 13 16.125 13C15.3294 13 14.5663 13.3161 14.0037 13.8787C13.4411 14.4413 13.125 15.2044 13.125 16Z" stroke="black" stroke-width="2" stroke-linecap="round" stroke-linejoin="round"/>
</svg>
