<svg width="18" height="19" viewBox="0 0 18 19" fill="none" xmlns="http://www.w3.org/2000/svg">
<path d="M5.8125 2.375C5.8125 2.06434 5.56066 1.8125 5.25 1.8125C4.93934 1.8125 4.6875 2.06434 4.6875 2.375V3.55944C3.608 3.64588 2.89933 3.85803 2.37868 4.37868C1.85803 4.89933 1.64588 5.608 1.55944 6.6875H16.4406C16.3541 5.608 16.142 4.89933 15.6213 4.37868C15.1007 3.85803 14.392 3.64588 13.3125 3.55944V2.375C13.3125 2.06434 13.0607 1.8125 12.75 1.8125C12.4393 1.8125 12.1875 2.06434 12.1875 2.375V3.50968C11.6886 3.5 11.1293 3.5 10.5 3.5H7.5C6.87072 3.5 6.31145 3.5 5.8125 3.50968V2.375Z" fill="black"/>
<path fill-rule="evenodd" clip-rule="evenodd" d="M1.5 9.5C1.5 8.87072 1.5 8.31145 1.50968 7.8125H16.4903C16.5 8.31145 16.5 8.87072 16.5 9.5V11C16.5 13.8284 16.5 15.2426 15.6213 16.1213C14.7426 17 13.3284 17 10.5 17H7.5C4.67157 17 3.25736 17 2.37868 16.1213C1.5 15.2426 1.5 13.8284 1.5 11V9.5ZM12.75 11C13.1642 11 13.5 10.6642 13.5 10.25C13.5 9.83579 13.1642 9.5 12.75 9.5C12.3358 9.5 12 9.83579 12 10.25C12 10.6642 12.3358 11 12.75 11ZM12.75 14C13.1642 14 13.5 13.6642 13.5 13.25C13.5 12.8358 13.1642 12.5 12.75 12.5C12.3358 12.5 12 12.8358 12 13.25C12 13.6642 12.3358 14 12.75 14ZM9.75 10.25C9.75 10.6642 9.41421 11 9 11C8.58579 11 8.25 10.6642 8.25 10.25C8.25 9.83579 8.58579 9.5 9 9.5C9.41421 9.5 9.75 9.83579 9.75 10.25ZM9.75 13.25C9.75 13.6642 9.41421 14 9 14C8.58579 14 8.25 13.6642 8.25 13.25C8.25 12.8358 8.58579 12.5 9 12.5C9.41421 12.5 9.75 12.8358 9.75 13.25ZM5.25 11C5.66421 11 6 10.6642 6 10.25C6 9.83579 5.66421 9.5 5.25 9.5C4.83579 9.5 4.5 9.83579 4.5 10.25C4.5 10.6642 4.83579 11 5.25 11ZM5.25 14C5.66421 14 6 13.6642 6 13.25C6 12.8358 5.66421 12.5 5.25 12.5C4.83579 12.5 4.5 12.8358 4.5 13.25C4.5 13.6642 4.83579 14 5.25 14Z" fill="black"/>
</svg>
