<svg width="18" height="19" viewBox="0 0 18 19" fill="none" xmlns="http://www.w3.org/2000/svg">
<path d="M1.5 9.5C1.5 6.67157 1.5 5.25736 2.37868 4.37868C3.25736 3.5 4.67157 3.5 7.5 3.5H10.5C13.3284 3.5 14.7426 3.5 15.6213 4.37868C16.5 5.25736 16.5 6.67157 16.5 9.5V11C16.5 13.8284 16.5 15.2426 15.6213 16.1213C14.7426 17 13.3284 17 10.5 17H7.5C4.67157 17 3.25736 17 2.37868 16.1213C1.5 15.2426 1.5 13.8284 1.5 11V9.5Z" stroke="white" stroke-width="1.5"/>
<path d="M5.25 3.5V2.375" stroke="white" stroke-width="1.5" stroke-linecap="round"/>
<path d="M12.75 3.5V2.375" stroke="white" stroke-width="1.5" stroke-linecap="round"/>
<circle cx="12.375" cy="12.875" r="1.125" stroke="white" stroke-width="1.5"/>
<path d="M1.875 7.25H16.125" stroke="white" stroke-width="1.5" stroke-linecap="round"/>
</svg>
