<svg width="18" height="19" viewBox="0 0 18 19" fill="none" xmlns="http://www.w3.org/2000/svg">
<path d="M12.301 15.875L4.5 2M16.5 14.75C16.5 15.9926 15.4926 17 14.25 17C13.0074 17 12 15.9926 12 14.75C12 13.5074 13.0074 12.5 14.25 12.5C15.4926 12.5 16.5 13.5074 16.5 14.75Z" stroke="black" stroke-width="1.5" stroke-linecap="round"/>
<path d="M5.69899 15.875L13.5 2M1.5 14.75C1.5 15.9926 2.50736 17 3.75 17C4.99264 17 6 15.9926 6 14.75C6 13.5074 4.99264 12.5 3.75 12.5C2.50736 12.5 1.5 13.5074 1.5 14.75Z" stroke="black" stroke-width="1.5" stroke-linecap="round"/>
</svg>
