<svg width="355" height="1" viewBox="0 0 333 1" fill="none" xmlns="http://www.w3.org/2000/svg">
<rect x="0.5" width="12" height="1" rx="0.5" fill="#C3C1D0"/>
<rect x="16.5" width="12" height="1" rx="0.5" fill="#C3C1D0"/>
<rect x="32.5" width="12" height="1" rx="0.5" fill="#C3C1D0"/>
<rect x="48.5" width="12" height="1" rx="0.5" fill="#C3C1D0"/>
<rect x="64.5" width="12" height="1" rx="0.5" fill="#C3C1D0"/>
<rect x="80.5" width="12" height="1" rx="0.5" fill="#C3C1D0"/>
<rect x="96.5" width="12" height="1" rx="0.5" fill="#C3C1D0"/>
<rect x="112.5" width="12" height="1" rx="0.5" fill="#C3C1D0"/>
<rect x="128.5" width="12" height="1" rx="0.5" fill="#C3C1D0"/>
<rect x="144.5" width="12" height="1" rx="0.5" fill="#C3C1D0"/>
<rect x="160.5" width="12" height="1" rx="0.5" fill="#C3C1D0"/>
<rect x="176.5" width="12" height="1" rx="0.5" fill="#C3C1D0"/>
<rect x="192.5" width="12" height="1" rx="0.5" fill="#C3C1D0"/>
<rect x="208.5" width="12" height="1" rx="0.5" fill="#C3C1D0"/>
<rect x="224.5" width="12" height="1" rx="0.5" fill="#C3C1D0"/>
<rect x="240.5" width="12" height="1" rx="0.5" fill="#C3C1D0"/>
<rect x="256.5" width="12" height="1" rx="0.5" fill="#C3C1D0"/>
<rect x="272.5" width="12" height="1" rx="0.5" fill="#C3C1D0"/>
<rect x="288.5" width="12" height="1" rx="0.5" fill="#C3C1D0"/>
<rect x="304.5" width="12" height="1" rx="0.5" fill="#C3C1D0"/>
<rect x="320.5" width="12" height="1" rx="0.5" fill="#C3C1D0"/>
</svg>
