<svg width="80" height="80" viewBox="0 0 117 118" fill="none" xmlns="http://www.w3.org/2000/svg">
<path fill-rule="evenodd" clip-rule="evenodd" d="M44.4555 7.66809C43.0349 8.87869 42.3246 9.48403 41.566 9.99248C39.8271 11.158 37.8742 11.9669 35.8204 12.3724C34.9245 12.5493 33.9942 12.6235 32.1336 12.772C27.4589 13.145 25.1215 13.3316 23.1715 14.0203C18.6611 15.6134 15.1134 19.1611 13.5203 23.6715C12.8316 25.6215 12.645 27.9589 12.272 32.6336C12.1235 34.4942 12.0493 35.4245 11.8724 36.3204C11.4669 38.3742 10.658 40.3271 9.49248 42.066C8.98403 42.8246 8.37872 43.5349 7.16809 44.9555C4.12637 48.5248 2.60545 50.3095 1.7136 52.1755C-0.349193 56.4912 -0.349193 61.5084 1.7136 65.8242C2.60545 67.6902 4.12633 69.4748 7.16809 73.0441C8.37858 74.4646 8.98406 75.1751 9.49248 75.9336C10.658 77.6726 11.4669 79.6255 11.8724 81.6792C12.0493 82.5752 12.1235 83.5055 12.272 85.366C12.645 90.0408 12.8316 92.3782 13.5203 94.3282C15.1134 98.8385 18.6611 102.386 23.1715 103.979C25.1215 104.668 27.4589 104.855 32.1336 105.228C33.9942 105.376 34.9245 105.45 35.8204 105.627C37.8742 106.033 39.8271 106.842 41.566 108.007C42.3246 108.516 43.0349 109.121 44.4555 110.332C48.0248 113.373 49.8095 114.894 51.6755 115.786C55.9912 117.849 61.0084 117.849 65.3242 115.786C67.1902 114.894 68.9748 113.373 72.5441 110.332C73.9647 109.121 74.675 108.516 75.4336 108.007C77.1726 106.842 79.1255 106.033 81.1792 105.627C82.0752 105.45 83.0055 105.376 84.866 105.228C89.5408 104.855 91.8782 104.668 93.8282 103.979C98.3385 102.386 101.886 98.8385 103.479 94.3282C104.168 92.3782 104.355 90.0408 104.728 85.366C104.876 83.5055 104.95 82.5752 105.127 81.6792C105.533 79.6255 106.342 77.6726 107.507 75.9336C108.016 75.175 108.621 74.4647 109.832 73.0441C112.873 69.4748 114.394 67.6902 115.286 65.8242C117.349 61.5084 117.349 56.4912 115.286 52.1755C114.394 50.3095 112.873 48.5249 109.832 44.9555C108.621 43.5349 108.016 42.8246 107.507 42.066C106.342 40.3271 105.533 38.3742 105.127 36.3204C104.95 35.4245 104.876 34.4942 104.728 32.6336C104.355 27.9589 104.168 25.6215 103.479 23.6715C101.886 19.1611 98.3385 15.6134 93.8282 14.0203C91.8782 13.3316 89.5408 13.145 84.866 12.772C83.0055 12.6235 82.0752 12.5493 81.1792 12.3724C79.1255 11.9669 77.1726 11.158 75.4336 9.99248C74.675 9.48403 73.9647 8.87872 72.5441 7.66809C68.9748 4.62633 67.1902 3.10545 65.3242 2.2136C61.0084 0.150807 55.9912 0.150807 51.6755 2.2136C49.8095 3.10545 48.0248 4.62636 44.4555 7.66809ZM84.0118 46.5348C85.8659 44.6808 85.8659 41.6748 84.0118 39.8208C82.1578 37.9668 79.1519 37.9668 77.2978 39.8208L49.0047 68.1139L39.7017 58.8109C37.8477 56.9568 34.8417 56.9568 32.9877 58.8109C31.1337 60.6649 31.1337 63.6708 32.9877 65.5249L45.6477 78.1849C47.5017 80.0389 50.5077 80.0389 52.3617 78.1849L84.0118 46.5348Z" fill="white"/>
</svg>
