<svg width="19" height="19" viewBox="0 0 19 19" fill="none" xmlns="http://www.w3.org/2000/svg">
<path fill-rule="evenodd" clip-rule="evenodd" d="M16.1926 9.31267C16.1774 9.31251 16.1574 9.3125 16.125 9.3125H14.1731C13.1055 9.3125 12.3125 10.1065 12.3125 11C12.3125 11.8934 13.1055 12.6875 14.1731 12.6875H16.125C16.1574 12.6875 16.1774 12.6875 16.1926 12.6873C16.207 12.6872 16.211 12.6869 16.211 12.6869C16.3655 12.6775 16.432 12.5732 16.4371 12.5104C16.4371 12.5104 16.4372 12.5057 16.4373 12.4989C16.4375 12.4856 16.4375 12.4679 16.4375 12.4375V9.5625C16.4375 9.54569 16.4375 9.53275 16.4375 9.52228C16.4374 9.51384 16.4374 9.50701 16.4373 9.50107C16.4372 9.49427 16.4371 9.48956 16.4371 9.48956C16.432 9.4268 16.3655 9.32247 16.211 9.31307C16.211 9.31307 16.2073 9.31282 16.1926 9.31267ZM16.1374 8.1875C16.1872 8.18748 16.2352 8.18746 16.2793 8.19014C16.9328 8.22992 17.5108 8.72285 17.5594 9.41134C17.5626 9.45649 17.5625 9.50515 17.5625 9.55026C17.5625 9.55437 17.5625 9.55845 17.5625 9.5625V12.4375C17.5625 12.4415 17.5625 12.4456 17.5625 12.4497C17.5625 12.4948 17.5626 12.5435 17.5594 12.5887C17.5108 13.2772 16.9328 13.7701 16.2793 13.8099C16.2352 13.8125 16.1872 13.8125 16.1374 13.8125C16.1333 13.8125 16.1292 13.8125 16.125 13.8125H14.1731C12.5642 13.8125 11.1875 12.5918 11.1875 11C11.1875 9.40817 12.5642 8.1875 14.1731 8.1875H16.125C16.1292 8.1875 16.1333 8.1875 16.1374 8.1875Z" fill="white"/>
<path d="M14.75 11C14.75 11.4142 14.4142 11.75 14 11.75C13.5858 11.75 13.25 11.4142 13.25 11C13.25 10.5858 13.5858 10.25 14 10.25C14.4142 10.25 14.75 10.5858 14.75 11Z" fill="white"/>
<path fill-rule="evenodd" clip-rule="evenodd" d="M16.1374 8.1875C16.1872 8.18748 16.2352 8.18746 16.2793 8.19014C16.4484 8.20043 16.6124 8.24106 16.7635 8.30756C16.6833 7.10272 16.4624 6.17422 15.7691 5.48093C15.2078 4.91966 14.4961 4.67057 13.6168 4.55235L13.585 4.54815C13.5772 4.54233 13.5691 4.53667 13.5608 4.53119L10.7592 2.67354C9.78187 2.02549 8.46813 2.02549 7.49077 2.67354L4.68915 4.53119C4.68089 4.53667 4.67283 4.54233 4.66495 4.54815L4.63323 4.55235C3.75392 4.67057 3.0422 4.91966 2.48093 5.48093C1.91966 6.0422 1.67057 6.75392 1.55235 7.63323C1.43748 8.48764 1.43749 9.57937 1.4375 10.9577V11.0423C1.43749 12.4206 1.43748 13.5124 1.55235 14.3668C1.67057 15.2461 1.91966 15.9578 2.48093 16.5191C3.04221 17.0803 3.75392 17.3294 4.63323 17.4476C5.48764 17.5625 6.57937 17.5625 7.95769 17.5625H10.2923C11.6706 17.5625 12.7624 17.5625 13.6168 17.4476C14.4961 17.3294 15.2078 17.0803 15.7691 16.5191C16.4624 15.8258 16.6833 14.8973 16.7635 13.6924C16.6124 13.7589 16.4484 13.7996 16.2793 13.8099C16.2352 13.8125 16.1872 13.8125 16.1374 13.8125L16.125 13.8125H15.6259C15.5406 14.8186 15.3475 15.3497 14.9736 15.7236C14.6562 16.041 14.2214 16.2312 13.4669 16.3327C12.6961 16.4363 11.6801 16.4375 10.25 16.4375H8C6.56989 16.4375 5.55389 16.4363 4.78314 16.3327C4.02857 16.2312 3.59384 16.041 3.27643 15.7236C2.95902 15.4062 2.76877 14.9714 2.66732 14.2169C2.5637 13.4461 2.5625 12.4301 2.5625 11C2.5625 9.56989 2.5637 8.55388 2.66732 7.78314C2.76877 7.02857 2.95902 6.59383 3.27643 6.27643C3.59383 5.95902 4.02857 5.76877 4.78314 5.66732C5.55388 5.56369 6.56988 5.5625 8 5.5625H10.25C11.6801 5.5625 12.6961 5.56369 13.4669 5.66732C14.2214 5.76877 14.6562 5.95902 14.9736 6.27643C15.3475 6.65032 15.5406 7.18141 15.6259 8.1875H16.125L16.1374 8.1875ZM7.95769 4.4375H10.2923C10.6797 4.4375 11.0444 4.43749 11.3876 4.44004L10.1375 3.61116C9.53698 3.21295 8.71302 3.21295 8.11246 3.61116L6.86238 4.44004C7.20558 4.43749 7.57031 4.4375 7.95769 4.4375Z" fill="white"/>
<path d="M5 7.4375C4.68934 7.4375 4.4375 7.68934 4.4375 8C4.4375 8.31066 4.68934 8.5625 5 8.5625H8C8.31066 8.5625 8.5625 8.31066 8.5625 8C8.5625 7.68934 8.31066 7.4375 8 7.4375H5Z" fill="white"/>
<path fill-rule="evenodd" clip-rule="evenodd" d="M14.75 11C14.75 11.4142 14.4142 11.75 14 11.75C13.5858 11.75 13.25 11.4142 13.25 11C13.25 10.5858 13.5858 10.25 14 10.25C14.4142 10.25 14.75 10.5858 14.75 11Z" fill="white"/>
</svg>
